<?xml version="1.0" encoding="UTF-8" standalone="no"?><svg xmlns="http://www.w3.org/2000/svg" xmlns:xlink="http://www.w3.org/1999/xlink" contentScriptType="application/ecmascript" contentStyleType="text/css" height="526px" preserveAspectRatio="none" style="width:784px;height:526px;" version="1.1" viewBox="0 0 784 526" width="784px" zoomAndPan="magnify"><defs><filter height="300%" id="fjenxr2im780l" width="300%" x="-1" y="-1"><feGaussianBlur result="blurOut" stdDeviation="2.0"/><feColorMatrix in="blurOut" result="blurOut2" type="matrix" values="0 0 0 0 0 0 0 0 0 0 0 0 0 0 0 0 0 0 .4 0"/><feOffset dx="4.0" dy="4.0" in="blurOut2" result="blurOut3"/><feBlend in="SourceGraphic" in2="blurOut3" mode="normal"/></filter></defs><g><!--MD5=[6a3bf63af39c3179cd22a6db35b75f44]
entity Пользователь--><ellipse cx="262" cy="17.5" fill="#FEFECE" filter="url(#fjenxr2im780l)" rx="8" ry="8" style="stroke: #A80036; stroke-width: 1.5;"/><path d="M262,25.5 L262,52.5 M249,33.5 L275,33.5 M262,52.5 L249,67.5 M262,52.5 L275,67.5 " fill="none" filter="url(#fjenxr2im780l)" style="stroke: #A80036; stroke-width: 1.5;"/><text fill="#000000" font-family="sans-serif" font-size="14" lengthAdjust="spacingAndGlyphs" textLength="96" x="214" y="85.9883">Пользователь</text><ellipse cx="432.2389" cy="192.7478" fill="#FEFECE" filter="url(#fjenxr2im780l)" rx="94.2389" ry="21.2478" style="stroke: #A80036; stroke-width: 1.5;"/><text fill="#000000" font-family="sans-serif" font-size="14" lengthAdjust="spacingAndGlyphs" textLength="163" x="350.7389" y="197.4509">Смотреть точку продаж</text><path d="M558,296 L558,412.6406 A0,0 0 0 0 558,412.6406 L772,412.6406 A0,0 0 0 0 772,412.6406 L772,306 L762,296 L584.8341,296 L461.0385,212.6899 L576.8341,296 L558,296 A0,0 0 0 0 558,296 " fill="#FBFB77" filter="url(#fjenxr2im780l)" style="stroke: #A80036; stroke-width: 1.0;"/><path d="M762,296 L762,306 L772,306 L762,296 " fill="#FBFB77" style="stroke: #A80036; stroke-width: 1.0;"/><text fill="#000000" font-family="sans-serif" font-size="13" lengthAdjust="spacingAndGlyphs" textLength="28" x="564" y="313.0605">html:</text><text fill="#000000" font-family="sans-serif" font-size="13" lengthAdjust="spacingAndGlyphs" textLength="193" x="564" y="328.2949">Пользователь видит селектор</text><text fill="#000000" font-family="sans-serif" font-size="13" lengthAdjust="spacingAndGlyphs" textLength="180" x="564" y="343.5293">с выбранной точкой продаж,</text><text fill="#000000" font-family="sans-serif" font-size="13" lengthAdjust="spacingAndGlyphs" textLength="184" x="564" y="358.7637">может сменить точку продаж</text><text fill="#000000" font-family="sans-serif" font-size="13" lengthAdjust="spacingAndGlyphs" textLength="0" x="567" y="373.998"/><text fill="#000000" font-family="sans-serif" font-size="13" lengthAdjust="spacingAndGlyphs" textLength="28" x="564" y="389.2324">json:</text><text fill="#000000" font-family="sans-serif" font-size="13" lengthAdjust="spacingAndGlyphs" textLength="143" x="564" y="404.4668">структура {code, name}</text><ellipse cx="432.1843" cy="354.5369" fill="#FEFECE" filter="url(#fjenxr2im780l)" rx="90.6843" ry="20.5369" style="stroke: #A80036; stroke-width: 1.5;"/><text fill="#000000" font-family="sans-serif" font-size="14" lengthAdjust="spacingAndGlyphs" textLength="155" x="354.6843" y="359.24">Сменить точку продаж</text><path d="M315.5,474 L315.5,514.4688 A0,0 0 0 0 315.5,514.4688 L548.5,514.4688 A0,0 0 0 0 548.5,514.4688 L548.5,484 L538.5,474 L436,474 L432,375.0837 L428,474 L315.5,474 A0,0 0 0 0 315.5,474 " fill="#FBFB77" filter="url(#fjenxr2im780l)" style="stroke: #A80036; stroke-width: 1.0;"/><path d="M538.5,474 L538.5,484 L548.5,484 L538.5,474 " fill="#FBFB77" style="stroke: #A80036; stroke-width: 1.0;"/><text fill="#000000" font-family="sans-serif" font-size="13" lengthAdjust="spacingAndGlyphs" textLength="209" x="321.5" y="491.0605">Смена точки продаж сохраняется</text><text fill="#000000" font-family="sans-serif" font-size="13" lengthAdjust="spacingAndGlyphs" textLength="86" x="321.5" y="506.2949">в базу данных</text><ellipse cx="169.9615" cy="192.2923" fill="#FEFECE" filter="url(#fjenxr2im780l)" rx="119.4615" ry="26.2923" style="stroke: #A80036; stroke-width: 1.5;"/><text fill="#000000" font-family="sans-serif" font-size="14" lengthAdjust="spacingAndGlyphs" textLength="218" x="60.9615" y="196.9954">Сменить историю точек продаж</text><path d="M6,334.5 L6,374.9688 A0,0 0 0 0 6,374.9688 L306,374.9688 A0,0 0 0 0 306,374.9688 L306,344.5 L296,334.5 L161.7395,334.5 L167.6882,219.251 L153.7395,334.5 L6,334.5 A0,0 0 0 0 6,334.5 " fill="#FBFB77" filter="url(#fjenxr2im780l)" style="stroke: #A80036; stroke-width: 1.0;"/><path d="M296,334.5 L296,344.5 L306,344.5 L296,334.5 " fill="#FBFB77" style="stroke: #A80036; stroke-width: 1.0;"/><text fill="#000000" font-family="sans-serif" font-size="13" lengthAdjust="spacingAndGlyphs" textLength="279" x="12" y="351.5605">Пользователь видит историю точек продаж</text><text fill="#000000" font-family="sans-serif" font-size="13" lengthAdjust="spacingAndGlyphs" textLength="277" x="12" y="366.7949">Дата начала; Дата окончания: Точка продаж</text><!--MD5=[9b985dbc59ea59de66a94fb885e6938e]
entity Внешняя система--><ellipse cx="432" cy="17.5" fill="#FEFECE" filter="url(#fjenxr2im780l)" rx="8" ry="8" style="stroke: #A80036; stroke-width: 1.5;"/><path d="M432,25.5 L432,52.5 M419,33.5 L445,33.5 M432,52.5 L419,67.5 M432,52.5 L445,67.5 " fill="none" filter="url(#fjenxr2im780l)" style="stroke: #A80036; stroke-width: 1.5;"/><text fill="#000000" font-family="sans-serif" font-size="14" lengthAdjust="spacingAndGlyphs" textLength="121" x="371.5" y="85.9883">Внешняя система</text><!--MD5=[a3e668f830f32cbb96c3f322e3336130]
link Пользователь to salepointView--><path d="M310.2605,89.3794 C342.0653,116.32 382.3679,150.4587 407.677,171.897 " fill="none" id="Пользователь-salepointView" style="stroke: #A80036; stroke-width: 1.0;"/><text fill="#000000" font-family="sans-serif" font-size="13" lengthAdjust="spacingAndGlyphs" textLength="25" x="363" y="132.0605">html</text><!--MD5=[0da3a1f375f2c0f71941c8c136fe139c]
link salepointView to salepointChange--><path d="M432,213.6787 C432,243.1901 432,296.6384 432,328.5204 " fill="none" id="salepointView-&gt;salepointChange" style="stroke: #A80036; stroke-width: 1.0;"/><polygon fill="#A80036" points="432,333.8283,436,324.8283,432,328.8283,428,324.8283,432,333.8283" style="stroke: #A80036; stroke-width: 1.0;"/><text fill="#000000" font-family="sans-serif" font-size="13" lengthAdjust="spacingAndGlyphs" textLength="25" x="433" y="262.0605">html</text><!--MD5=[ebbf8166e99219b4ef435a59699da2c5]
link Пользователь to salepointHistory--><path d="M235.8826,89.3794 C220.158,113.9918 200.5951,144.6119 186.8876,166.0672 " fill="none" id="Пользователь-salepointHistory" style="stroke: #A80036; stroke-width: 1.0;"/><text fill="#000000" font-family="sans-serif" font-size="13" lengthAdjust="spacingAndGlyphs" textLength="25" x="217" y="132.0605">html</text><!--MD5=[fc3ca5725115d44a2ea67efa327cd840]
link Внешняя система to salepointView--><path d="M432,89.3794 C432,116.1537 432,150.0375 432,171.4986 " fill="none" id="Внешняя система-salepointView" style="stroke: #A80036; stroke-width: 1.0;"/><text fill="#000000" font-family="sans-serif" font-size="13" lengthAdjust="spacingAndGlyphs" textLength="25" x="433" y="132.0605">json</text><!--MD5=[73d7df422690766a0adba63ebd416923]
@startuml usecase

:Пользователь:

(Смотреть точку продаж) as salepointView

note bottom of salepointView
  html:
  Пользователь видит селектор
  с выбранной точкой продаж,
  может сменить точку продаж

  json:
  структура {code, name}
end note

(Сменить точку продаж) as salepointChange
note bottom of salepointChange
  Смена точки продаж сохраняется 
  в базу данных
end note


(Сменить историю точек продаж) as salepointHistory

note bottom of salepointHistory
  Пользователь видит историю точек продаж
  Дата начала; Дата окончания: Точка продаж
end note


:Пользователь: - - salepointView : html
salepointView - -> salepointChange : html
:Пользователь: - - salepointHistory : html


:Внешняя система:

:Внешняя система: - - salepointView : json

@enduml

PlantUML version 1.2020.09(Sun May 10 14:51:06 SAMT 2020)
(GPL source distribution)
Java Runtime: OpenJDK Runtime Environment
JVM: OpenJDK 64-Bit Server VM
Java Version: 11.0.10+9-suse-lp152.2.9.1-x8664
Operating System: Linux
Default Encoding: UTF-8
Language: ru
Country: RU
--></g></svg>